<svg width="161" height="30" fill="none" xmlns="http://www.w3.org/2000/svg"><path fill-rule="evenodd" clip-rule="evenodd" d="M123.848 6.381c-.637.492-1.515.738-2.634.738-1.087 0-1.951-.246-2.593-.738-.642-.492-.963-1.306-.963-2.443 0-.983.321-1.746.963-2.287.642-.54 1.517-.811 2.626-.811 1.108 0 1.978.281 2.609.844s.946 1.314.946 2.254c0 1.137-.318 1.951-.954 2.443zM111.386 25.84a16.4 16.4 0 001.621-.082c.555-.055 1.07-.142 1.548-.262a5.04 5.04 0 001.193-.443l-.313-4.869a4.972 4.972 0 01-1.16.558c-.379.12-.727.18-1.045.18-.714 0-1.219-.238-1.515-.713-.296-.476-.444-1.156-.444-2.041v-4.672h4.428V8.955h-4.428v-6.36l-6.058 1.032v5.328h-2.404v4.54h2.404v6.722c0 1.322.221 2.389.664 3.2l.068.12c.488.825 1.196 1.415 2.124 1.77.927.355 2.033.533 3.317.533zm-49.83-9.443v8.968h-6.141V8.955l5.12-.279.263 2.82h.494c.417-.83.867-1.462 1.35-1.894.483-.431.974-.73 1.473-.893.5-.164.99-.246 1.474-.246.208 0 .471.022.79.065.318.044.614.126.889.246l-.527 5.902c-.461-.01-.875-.022-1.243-.033a38.06 38.06 0 00-1.128-.016c-.307 0-.6.027-.88.082-.28.055-.538.15-.774.287-.236.136-.453.32-.65.549-.198.23-.368.513-.51.852zM49.94 25.651c-.609.06-1.292.09-2.05.09-1.92 0-3.547-.366-4.88-1.098-1.334-.732-2.349-1.738-3.046-3.016-.697-1.279-1.045-2.754-1.045-4.426 0-1.673.316-3.164.947-4.476.63-1.311 1.585-2.344 2.864-3.098s2.889-1.131 4.832-1.131a14.124 14.124 0 013.843.532c.588.17 1.106.375 1.556.615l-.428 5.197c-.636-.36-1.207-.626-1.712-.795a8.184 8.184 0 00-1.35-.344 6.93 6.93 0 00-1.02-.09c-.988 0-1.781.305-2.38.917-.597.612-.896 1.443-.896 2.492 0 .754.164 1.413.493 1.976.33.563.807 1.002 1.433 1.32.625.316 1.377.475 2.255.475.384 0 .763-.036 1.136-.107.373-.07.74-.18 1.103-.328.362-.147.713-.33 1.053-.549l.247 5.197a9.378 9.378 0 01-1.317.393 13.45 13.45 0 01-1.638.254zM84 17.847a13.088 13.088 0 00.125-1.974c0-1.705-.293-3.101-.88-4.189a5.548 5.548 0 00-2.535-2.426c-1.103-.53-2.44-.795-4.009-.795-1.843 0-3.369.369-4.576 1.106a6.853 6.853 0 00-2.708 3.066c-.598 1.306-.897 2.806-.897 4.5 0 1.705.323 3.21.971 4.516.648 1.306 1.665 2.331 3.054 3.074 1.388.743 3.19 1.115 5.407 1.115.878 0 1.685-.046 2.42-.14a15.399 15.399 0 001.976-.368 10.607 10.607 0 001.514-.508l-.197-5.066a9.379 9.379 0 01-1.696.623c-.614.164-1.21.287-1.786.369-.576.082-1.062.123-1.457.123-1.02 0-1.85-.142-2.486-.427-.636-.284-1.105-.696-1.407-1.237a3.457 3.457 0 01-.37-1.048l-.01-.059h9.508l.039-.255zm-9.572-2.537l-.005.039 4.396-.12-.002-.066c-.04-.77-.23-1.388-.568-1.856-.384-.53-.878-.795-1.482-.795-.45 0-.853.14-1.21.418-.356.279-.642.689-.856 1.23a4.566 4.566 0 00-.273 1.15zM90.38 25.79c.769 0 1.452-.128 2.05-.384a5.343 5.343 0 001.555-1c.44-.41.802-.856 1.087-1.336h.412l.411 2.295h5.07V14.414c0-1.4-.266-2.536-.798-3.41-.532-.874-1.303-1.516-2.313-1.926-1.01-.41-2.222-.615-3.638-.615-.801 0-1.57.04-2.305.123-.735.082-1.427.186-2.074.311-.648.126-1.24.265-1.778.418-.538.153-1.015.295-1.432.427l.263 5.098a14.249 14.249 0 014.355-1.32 9.21 9.21 0 011.226-.09c.658 0 1.213.06 1.663.18.45.12.784.306 1.004.558.22.251.318.58.296.983l-4.395.738a10.91 10.91 0 00-1.647.435 6.32 6.32 0 00-1.687.885 4.506 4.506 0 00-1.308 1.524c-.34.629-.51 1.418-.51 2.37 0 .884.172 1.682.518 2.393.345.71.853 1.27 1.522 1.68.67.41 1.487.615 2.453.615zm1.745-4.983a1.6 1.6 0 00.972.328c.263 0 .529-.063.798-.189a2.77 2.77 0 00.757-.532 3.64 3.64 0 00.617-.804V17.2a2.1 2.1 0 01-.386.271 3.706 3.706 0 01-.626.254c-.269.088-.634.191-1.095.312a2.35 2.35 0 00-.749.32 1.676 1.676 0 00-.535.557c-.131.224-.197.5-.197.828 0 .491.148.847.444 1.065zm32.183 4.558V8.79l-6.14.164v16.41h6.14zm15.277-3.09a713.54 713.54 0 01-1.07 3.09h-6.519a1009.72 1009.72 0 00-1.07-3.115c-.362-1.05-.724-2.082-1.086-3.099l-1.004-2.901c-.418-1.213-.837-2.43-1.26-3.648a664.917 664.917 0 00-1.276-3.647l6.635-.18c.219 1.016.436 2.038.65 3.065.214 1.027.431 2.055.65 3.082l.823 3.869h.478l.823-3.886.666-3.081.618-2.87h6.535a4374.33 4374.33 0 01-1.259 3.656 997.71 997.71 0 01-1.276 3.673l-1.004 2.918c-.351 1.027-.703 2.052-1.054 3.073zm21.209-4.428a13.09 13.09 0 00.126-1.974c0-1.705-.294-3.101-.881-4.189a5.547 5.547 0 00-2.535-2.426c-1.103-.53-2.439-.795-4.008-.795-1.844 0-3.37.369-4.577 1.106a6.854 6.854 0 00-2.708 3.066c-.598 1.306-.897 2.806-.897 4.5 0 1.705.324 3.21.971 4.516.648 1.306 1.666 2.331 3.054 3.074 1.388.743 3.191 1.115 5.408 1.115.878 0 1.684-.046 2.42-.14a15.412 15.412 0 001.975-.368 10.602 10.602 0 001.515-.508l-.198-5.066a9.374 9.374 0 01-1.696.623 15.23 15.23 0 01-1.786.369 10.62 10.62 0 01-1.457.123c-1.02 0-1.849-.142-2.485-.427-.637-.284-1.106-.696-1.408-1.237a3.473 3.473 0 01-.369-1.048l-.011-.059h9.508l.039-.255zm-9.572-2.537l-.004.039 4.395-.12-.002-.066c-.04-.77-.229-1.388-.568-1.856-.384-.53-.878-.795-1.482-.795-.449 0-.853.14-1.209.418-.357.279-.642.689-.857 1.23a4.615 4.615 0 00-.273 1.15z" fill="#000"/><path fill-rule="evenodd" clip-rule="evenodd" d="M25.607 13.815h-1.964c-.094.515-.283.93-.567 1.242-.284.312-.696.468-1.236.468-.486 0-1.013-.13-1.58-.387a52.885 52.885 0 01-1.845-.886 14.569 14.569 0 00-2.198-.875c-.804-.251-1.685-.377-2.645-.377-1.729 0-3.09.733-4.083 2.2C8.496 16.664 8 18.653 8 21.164h4.357c.094-.502.307-.91.638-1.222.33-.312.773-.468 1.327-.468.46 0 .966.126 1.52.377.554.25 1.175.546 1.864.886.69.339 1.449.634 2.28.885.83.251 1.732.377 2.705.377 1.003 0 1.878-.275 2.624-.824C23.575 26.307 18.719 30 13 30 5.82 30 0 24.18 0 17S5.82 4 13 4c6.08 0 11.186 4.175 12.607 9.815z" fill="#F94F4F"/></svg>