<svg width="134" height="60" fill="none" xmlns="http://www.w3.org/2000/svg"><path d="M98.43 0c10.951 0 19.618 4.864 25.999 14.593C130.81 24.32 134 37.647 134 54.57h-29.189c-.634-3.439-1.901-6.199-3.802-8.28-1.9-2.082-4.661-3.123-8.281-3.123-3.259 0-6.789.86-10.59 2.58a354.871 354.871 0 00-12.355 5.905c-4.435 2.217-9.345 4.163-14.73 5.837C49.667 59.163 43.762 60 37.335 60 25.75 60 16.631 55.113 9.98 45.34 3.326 35.565 0 22.307 0 5.565h29.19c.633 3.348 2.059 6.063 4.276 8.144 2.218 2.082 5.182 3.123 8.893 3.123 3.077 0 6.471-.837 10.182-2.512a437.559 437.559 0 0012.49-5.905c4.616-2.262 9.708-4.23 15.274-5.905C85.871.837 91.913 0 98.43 0z" fill="#fff"/></svg>